<?xml version="1.0" encoding="UTF-8" standalone="no"?>
<!DOCTYPE svg PUBLIC "-//W3C//DTD SVG 1.1//EN"
 "http://www.w3.org/Graphics/SVG/1.1/DTD/svg11.dtd">
<!-- Generated by graphviz version 3.0.0 (20220226.1711)
 -->
<!-- Title: dependencies Pages: 1 -->
<svg width="5414pt" height="247pt"
 viewBox="0.00 0.00 5414.00 246.80" xmlns="http://www.w3.org/2000/svg" xmlns:xlink="http://www.w3.org/1999/xlink">
<g id="graph0" class="graph" transform="scale(1 1) rotate(0) translate(4 242.8)">
<title>dependencies</title>
<polygon fill="white" stroke="transparent" points="-4,4 -4,-242.8 5410,-242.8 5410,4 -4,4"/>
<text text-anchor="middle" x="2703" y="-8.2" font-family="sans-serif" font-size="14.00">dependencies</text>
<g id="clust1" class="cluster">
<title>cluster_AppModule</title>
<polygon fill="none" stroke="black" stroke-dasharray="1,5" points="8,-32.8 8,-230.8 5398,-230.8 5398,-32.8 8,-32.8"/>
</g>
<g id="clust2" class="cluster">
<title>cluster_AppModule_declarations</title>
<polygon fill="none" stroke="black" points="293,-40.8 293,-92.8 5390,-92.8 5390,-40.8 293,-40.8"/>
</g>
<g id="clust35" class="cluster">
<title>cluster_AppModule_imports</title>
<polygon fill="none" stroke="black" points="16,-40.8 16,-92.8 285,-92.8 285,-40.8 16,-40.8"/>
</g>
<g id="clust37" class="cluster">
<title>cluster_AppModule_bootstrap</title>
<polygon fill="none" stroke="black" points="2602,-170.8 2602,-222.8 2726,-222.8 2726,-170.8 2602,-170.8"/>
</g>
<!-- AccountComponent -->
<g id="node1" class="node">
<title>AccountComponent</title>
<polygon fill="#ffffb3" stroke="black" points="5382.26,-84.8 5253.74,-84.8 5253.74,-48.8 5382.26,-48.8 5382.26,-84.8"/>
<text text-anchor="middle" x="5318" y="-62.6" font-family="Times,serif" font-size="14.00">AccountComponent</text>
</g>
<!-- AppModule -->
<g id="node33" class="node">
<title>AppModule</title>
<polygon fill="#8dd3c7" stroke="black" points="2705.66,-149.8 2702.66,-153.8 2681.66,-153.8 2678.66,-149.8 2622.34,-149.8 2622.34,-113.8 2705.66,-113.8 2705.66,-149.8"/>
<text text-anchor="middle" x="2664" y="-127.6" font-family="Times,serif" font-size="14.00">AppModule</text>
</g>
<!-- AccountComponent&#45;&gt;AppModule -->
<g id="edge1" class="edge">
<title>AccountComponent&#45;&gt;AppModule</title>
<path fill="none" stroke="black" d="M5318,-85.18C5318,-109.08 5318,-147.8 5318,-147.8 5318,-147.8 2715.69,-147.8 2715.69,-147.8"/>
<polygon fill="black" stroke="black" points="2715.69,-144.3 2705.69,-147.8 2715.69,-151.3 2715.69,-144.3"/>
</g>
<!-- AddCategoryComponent -->
<g id="node2" class="node">
<title>AddCategoryComponent</title>
<polygon fill="#ffffb3" stroke="black" points="5235.26,-84.8 5078.74,-84.8 5078.74,-48.8 5235.26,-48.8 5235.26,-84.8"/>
<text text-anchor="middle" x="5157" y="-62.6" font-family="Times,serif" font-size="14.00">AddCategoryComponent</text>
</g>
<!-- AddCategoryComponent&#45;&gt;AppModule -->
<g id="edge2" class="edge">
<title>AddCategoryComponent&#45;&gt;AppModule</title>
<path fill="none" stroke="black" d="M5157,-85.12C5157,-108.46 5157,-145.8 5157,-145.8 5157,-145.8 2715.71,-145.8 2715.71,-145.8"/>
<polygon fill="black" stroke="black" points="2715.71,-142.3 2705.71,-145.8 2715.71,-149.3 2715.71,-142.3"/>
</g>
<!-- AddProductComponent -->
<g id="node3" class="node">
<title>AddProductComponent</title>
<polygon fill="#ffffb3" stroke="black" points="5060.49,-84.8 4911.51,-84.8 4911.51,-48.8 5060.49,-48.8 5060.49,-84.8"/>
<text text-anchor="middle" x="4986" y="-62.6" font-family="Times,serif" font-size="14.00">AddProductComponent</text>
</g>
<!-- AddProductComponent&#45;&gt;AppModule -->
<g id="edge3" class="edge">
<title>AddProductComponent&#45;&gt;AppModule</title>
<path fill="none" stroke="black" d="M4986,-85.05C4986,-107.82 4986,-143.8 4986,-143.8 4986,-143.8 2715.79,-143.8 2715.79,-143.8"/>
<polygon fill="black" stroke="black" points="2715.79,-140.3 2705.79,-143.8 2715.79,-147.3 2715.79,-140.3"/>
</g>
<!-- AdminComponent -->
<g id="node4" class="node">
<title>AdminComponent</title>
<polygon fill="#ffffb3" stroke="black" points="4893.22,-84.8 4772.78,-84.8 4772.78,-48.8 4893.22,-48.8 4893.22,-84.8"/>
<text text-anchor="middle" x="4833" y="-62.6" font-family="Times,serif" font-size="14.00">AdminComponent</text>
</g>
<!-- AdminComponent&#45;&gt;AppModule -->
<g id="edge4" class="edge">
<title>AdminComponent&#45;&gt;AppModule</title>
<path fill="none" stroke="black" d="M4833,-84.96C4833,-107.15 4833,-141.8 4833,-141.8 4833,-141.8 2715.87,-141.8 2715.87,-141.8"/>
<polygon fill="black" stroke="black" points="2715.87,-138.3 2705.87,-141.8 2715.87,-145.3 2715.87,-138.3"/>
</g>
<!-- AdminFooterComponent -->
<g id="node5" class="node">
<title>AdminFooterComponent</title>
<polygon fill="#ffffb3" stroke="black" points="4755.27,-84.8 4598.73,-84.8 4598.73,-48.8 4755.27,-48.8 4755.27,-84.8"/>
<text text-anchor="middle" x="4677" y="-62.6" font-family="Times,serif" font-size="14.00">AdminFooterComponent</text>
</g>
<!-- AdminFooterComponent&#45;&gt;AppModule -->
<g id="edge5" class="edge">
<title>AdminFooterComponent&#45;&gt;AppModule</title>
<path fill="none" stroke="black" d="M4677,-84.84C4677,-106.46 4677,-139.8 4677,-139.8 4677,-139.8 2716.04,-139.8 2716.04,-139.8"/>
<polygon fill="black" stroke="black" points="2716.04,-136.3 2706.04,-139.8 2716.04,-143.3 2716.04,-136.3"/>
</g>
<!-- AdminHeaderComponent -->
<g id="node6" class="node">
<title>AdminHeaderComponent</title>
<polygon fill="#ffffb3" stroke="black" points="4580.14,-84.8 4419.86,-84.8 4419.86,-48.8 4580.14,-48.8 4580.14,-84.8"/>
<text text-anchor="middle" x="4500" y="-62.6" font-family="Times,serif" font-size="14.00">AdminHeaderComponent</text>
</g>
<!-- AdminHeaderComponent&#45;&gt;AppModule -->
<g id="edge6" class="edge">
<title>AdminHeaderComponent&#45;&gt;AppModule</title>
<path fill="none" stroke="black" d="M4500,-85.08C4500,-106.12 4500,-137.8 4500,-137.8 4500,-137.8 2715.8,-137.8 2715.8,-137.8"/>
<polygon fill="black" stroke="black" points="2715.8,-134.3 2705.8,-137.8 2715.8,-141.3 2715.8,-134.3"/>
</g>
<!-- AdminLoginComponent -->
<g id="node7" class="node">
<title>AdminLoginComponent</title>
<polygon fill="#ffffb3" stroke="black" points="4401.66,-84.8 4248.34,-84.8 4248.34,-48.8 4401.66,-48.8 4401.66,-84.8"/>
<text text-anchor="middle" x="4325" y="-62.6" font-family="Times,serif" font-size="14.00">AdminLoginComponent</text>
</g>
<!-- AdminLoginComponent&#45;&gt;AppModule -->
<g id="edge7" class="edge">
<title>AdminLoginComponent&#45;&gt;AppModule</title>
<path fill="none" stroke="black" d="M4325,-84.93C4325,-105.37 4325,-135.8 4325,-135.8 4325,-135.8 2715.89,-135.8 2715.89,-135.8"/>
<polygon fill="black" stroke="black" points="2715.89,-132.3 2705.89,-135.8 2715.89,-139.3 2715.89,-132.3"/>
</g>
<!-- AdminRegisterComponent -->
<g id="node8" class="node">
<title>AdminRegisterComponent</title>
<polygon fill="#ffffb3" stroke="black" points="4230.38,-84.8 4063.62,-84.8 4063.62,-48.8 4230.38,-48.8 4230.38,-84.8"/>
<text text-anchor="middle" x="4147" y="-62.6" font-family="Times,serif" font-size="14.00">AdminRegisterComponent</text>
</g>
<!-- AdminRegisterComponent&#45;&gt;AppModule -->
<g id="edge8" class="edge">
<title>AdminRegisterComponent&#45;&gt;AppModule</title>
<path fill="none" stroke="black" d="M4147,-85.11C4147,-104.95 4147,-133.8 4147,-133.8 4147,-133.8 2715.99,-133.8 2715.99,-133.8"/>
<polygon fill="black" stroke="black" points="2715.99,-130.3 2705.99,-133.8 2715.99,-137.3 2715.99,-130.3"/>
</g>
<!-- AppComponent -->
<g id="node9" class="node">
<title>AppComponent</title>
<polygon fill="#ffffb3" stroke="black" points="4045.94,-84.8 3940.06,-84.8 3940.06,-48.8 4045.94,-48.8 4045.94,-84.8"/>
<text text-anchor="middle" x="3993" y="-62.6" font-family="Times,serif" font-size="14.00">AppComponent</text>
</g>
<!-- AppComponent&#45;&gt;AppModule -->
<g id="edge9" class="edge">
<title>AppComponent&#45;&gt;AppModule</title>
<path fill="none" stroke="black" d="M3993,-84.97C3993,-103.89 3993,-130.8 3993,-130.8 3993,-130.8 2715.97,-130.8 2715.97,-130.8"/>
<polygon fill="black" stroke="black" points="2715.97,-127.3 2705.97,-130.8 2715.97,-134.3 2715.97,-127.3"/>
</g>
<!-- CartComponent -->
<g id="node10" class="node">
<title>CartComponent</title>
<polygon fill="#ffffb3" stroke="black" points="3922.94,-84.8 3817.06,-84.8 3817.06,-48.8 3922.94,-48.8 3922.94,-84.8"/>
<text text-anchor="middle" x="3870" y="-62.6" font-family="Times,serif" font-size="14.00">CartComponent</text>
</g>
<!-- CartComponent&#45;&gt;AppModule -->
<g id="edge10" class="edge">
<title>CartComponent&#45;&gt;AppModule</title>
<path fill="none" stroke="black" d="M3870,-85.07C3870,-103.36 3870,-128.8 3870,-128.8 3870,-128.8 2715.86,-128.8 2715.86,-128.8"/>
<polygon fill="black" stroke="black" points="2715.86,-125.3 2705.86,-128.8 2715.86,-132.3 2715.86,-125.3"/>
</g>
<!-- CategoryComponent -->
<g id="node11" class="node">
<title>CategoryComponent</title>
<polygon fill="#ffffb3" stroke="black" points="3799.15,-84.8 3666.85,-84.8 3666.85,-48.8 3799.15,-48.8 3799.15,-84.8"/>
<text text-anchor="middle" x="3733" y="-62.6" font-family="Times,serif" font-size="14.00">CategoryComponent</text>
</g>
<!-- CategoryComponent&#45;&gt;AppModule -->
<g id="edge11" class="edge">
<title>CategoryComponent&#45;&gt;AppModule</title>
<path fill="none" stroke="black" d="M3733,-84.8C3733,-102.48 3733,-126.8 3733,-126.8 3733,-126.8 2715.91,-126.8 2715.91,-126.8"/>
<polygon fill="black" stroke="black" points="2715.91,-123.3 2705.91,-126.8 2715.91,-130.3 2715.91,-123.3"/>
</g>
<!-- DashboardComponent -->
<g id="node12" class="node">
<title>DashboardComponent</title>
<polygon fill="#ffffb3" stroke="black" points="3648.98,-84.8 3507.02,-84.8 3507.02,-48.8 3648.98,-48.8 3648.98,-84.8"/>
<text text-anchor="middle" x="3578" y="-62.6" font-family="Times,serif" font-size="14.00">DashboardComponent</text>
</g>
<!-- DashboardComponent&#45;&gt;AppModule -->
<g id="edge12" class="edge">
<title>DashboardComponent&#45;&gt;AppModule</title>
<path fill="none" stroke="black" d="M3578,-84.83C3578,-101.86 3578,-124.8 3578,-124.8 3578,-124.8 2715.95,-124.8 2715.95,-124.8"/>
<polygon fill="black" stroke="black" points="2715.95,-121.3 2705.95,-124.8 2715.95,-128.3 2715.95,-121.3"/>
</g>
<!-- EditCategoryComponent -->
<g id="node13" class="node">
<title>EditCategoryComponent</title>
<polygon fill="#ffffb3" stroke="black" points="3488.98,-84.8 3333.02,-84.8 3333.02,-48.8 3488.98,-48.8 3488.98,-84.8"/>
<text text-anchor="middle" x="3411" y="-62.6" font-family="Times,serif" font-size="14.00">EditCategoryComponent</text>
</g>
<!-- EditCategoryComponent&#45;&gt;AppModule -->
<g id="edge13" class="edge">
<title>EditCategoryComponent&#45;&gt;AppModule</title>
<path fill="none" stroke="black" d="M3411,-84.83C3411,-101.2 3411,-122.8 3411,-122.8 3411,-122.8 2715.76,-122.8 2715.76,-122.8"/>
<polygon fill="black" stroke="black" points="2715.76,-119.3 2705.76,-122.8 2715.76,-126.3 2715.76,-119.3"/>
</g>
<!-- EditOrderComponent -->
<g id="node14" class="node">
<title>EditOrderComponent</title>
<polygon fill="#ffffb3" stroke="black" points="3314.81,-84.8 3177.19,-84.8 3177.19,-48.8 3314.81,-48.8 3314.81,-84.8"/>
<text text-anchor="middle" x="3246" y="-62.6" font-family="Times,serif" font-size="14.00">EditOrderComponent</text>
</g>
<!-- EditOrderComponent&#45;&gt;AppModule -->
<g id="edge14" class="edge">
<title>EditOrderComponent&#45;&gt;AppModule</title>
<path fill="none" stroke="black" d="M3246,-85.08C3246,-100.75 3246,-120.8 3246,-120.8 3246,-120.8 2715.86,-120.8 2715.86,-120.8"/>
<polygon fill="black" stroke="black" points="2715.86,-117.3 2705.86,-120.8 2715.86,-124.3 2715.86,-117.3"/>
</g>
<!-- EditOrderDetailComponent -->
<g id="node15" class="node">
<title>EditOrderDetailComponent</title>
<polygon fill="#ffffb3" stroke="black" points="3159.52,-84.8 2988.48,-84.8 2988.48,-48.8 3159.52,-48.8 3159.52,-84.8"/>
<text text-anchor="middle" x="3074" y="-62.6" font-family="Times,serif" font-size="14.00">EditOrderDetailComponent</text>
</g>
<!-- EditOrderDetailComponent&#45;&gt;AppModule -->
<g id="edge15" class="edge">
<title>EditOrderDetailComponent&#45;&gt;AppModule</title>
<path fill="none" stroke="black" d="M3074,-84.99C3074,-99.98 3074,-118.8 3074,-118.8 3074,-118.8 2715.95,-118.8 2715.95,-118.8"/>
<polygon fill="black" stroke="black" points="2715.95,-115.3 2705.95,-118.8 2715.95,-122.3 2715.95,-115.3"/>
</g>
<!-- EditProductComponent -->
<g id="node16" class="node">
<title>EditProductComponent</title>
<polygon fill="#ffffb3" stroke="black" points="2970.21,-84.8 2821.79,-84.8 2821.79,-48.8 2970.21,-48.8 2970.21,-84.8"/>
<text text-anchor="middle" x="2896" y="-62.6" font-family="Times,serif" font-size="14.00">EditProductComponent</text>
</g>
<!-- EditProductComponent&#45;&gt;AppModule -->
<g id="edge16" class="edge">
<title>EditProductComponent&#45;&gt;AppModule</title>
<path fill="none" stroke="black" d="M2896,-84.85C2896,-99.17 2896,-116.8 2896,-116.8 2896,-116.8 2715.74,-116.8 2715.74,-116.8"/>
<polygon fill="black" stroke="black" points="2715.74,-113.3 2705.74,-116.8 2715.74,-120.3 2715.74,-113.3"/>
</g>
<!-- EditUsersComponent -->
<g id="node17" class="node">
<title>EditUsersComponent</title>
<polygon fill="#ffffb3" stroke="black" points="2804.05,-84.8 2667.95,-84.8 2667.95,-48.8 2804.05,-48.8 2804.05,-84.8"/>
<text text-anchor="middle" x="2736" y="-62.6" font-family="Times,serif" font-size="14.00">EditUsersComponent</text>
</g>
<!-- EditUsersComponent&#45;&gt;AppModule -->
<g id="edge17" class="edge">
<title>EditUsersComponent&#45;&gt;AppModule</title>
<path fill="none" stroke="black" d="M2686.78,-84.91C2686.78,-84.91 2686.78,-103.79 2686.78,-103.79"/>
<polygon fill="black" stroke="black" points="2683.28,-103.79 2686.78,-113.79 2690.28,-103.79 2683.28,-103.79"/>
</g>
<!-- HomeComponent -->
<g id="node18" class="node">
<title>HomeComponent</title>
<polygon fill="#ffffb3" stroke="black" points="2649.55,-84.8 2534.45,-84.8 2534.45,-48.8 2649.55,-48.8 2649.55,-84.8"/>
<text text-anchor="middle" x="2592" y="-62.6" font-family="Times,serif" font-size="14.00">HomeComponent</text>
</g>
<!-- HomeComponent&#45;&gt;AppModule -->
<g id="edge18" class="edge">
<title>HomeComponent&#45;&gt;AppModule</title>
<path fill="none" stroke="black" d="M2635.97,-84.91C2635.97,-84.91 2635.97,-103.79 2635.97,-103.79"/>
<polygon fill="black" stroke="black" points="2632.47,-103.79 2635.97,-113.79 2639.47,-103.79 2632.47,-103.79"/>
</g>
<!-- OrderComponent -->
<g id="node19" class="node">
<title>OrderComponent</title>
<polygon fill="#ffffb3" stroke="black" points="2515.98,-84.8 2402.02,-84.8 2402.02,-48.8 2515.98,-48.8 2515.98,-84.8"/>
<text text-anchor="middle" x="2459" y="-62.6" font-family="Times,serif" font-size="14.00">OrderComponent</text>
</g>
<!-- OrderComponent&#45;&gt;AppModule -->
<g id="edge19" class="edge">
<title>OrderComponent&#45;&gt;AppModule</title>
<path fill="none" stroke="black" d="M2459,-84.85C2459,-99.17 2459,-116.8 2459,-116.8 2459,-116.8 2612.02,-116.8 2612.02,-116.8"/>
<polygon fill="black" stroke="black" points="2612.02,-120.3 2622.02,-116.8 2612.02,-113.3 2612.02,-120.3"/>
</g>
<!-- PageNotFoundComponent -->
<g id="node20" class="node">
<title>PageNotFoundComponent</title>
<polygon fill="#ffffb3" stroke="black" points="2383.83,-84.8 2218.17,-84.8 2218.17,-48.8 2383.83,-48.8 2383.83,-84.8"/>
<text text-anchor="middle" x="2301" y="-62.6" font-family="Times,serif" font-size="14.00">PageNotFoundComponent</text>
</g>
<!-- PageNotFoundComponent&#45;&gt;AppModule -->
<g id="edge20" class="edge">
<title>PageNotFoundComponent&#45;&gt;AppModule</title>
<path fill="none" stroke="black" d="M2301,-84.99C2301,-99.98 2301,-118.8 2301,-118.8 2301,-118.8 2612,-118.8 2612,-118.8"/>
<polygon fill="black" stroke="black" points="2612,-122.3 2622,-118.8 2612,-115.3 2612,-122.3"/>
</g>
<!-- ProductComponent -->
<g id="node21" class="node">
<title>ProductComponent</title>
<polygon fill="#ffffb3" stroke="black" points="2200.38,-84.8 2075.62,-84.8 2075.62,-48.8 2200.38,-48.8 2200.38,-84.8"/>
<text text-anchor="middle" x="2138" y="-62.6" font-family="Times,serif" font-size="14.00">ProductComponent</text>
</g>
<!-- ProductComponent&#45;&gt;AppModule -->
<g id="edge21" class="edge">
<title>ProductComponent&#45;&gt;AppModule</title>
<path fill="none" stroke="black" d="M2138,-85.08C2138,-100.75 2138,-120.8 2138,-120.8 2138,-120.8 2612.29,-120.8 2612.29,-120.8"/>
<polygon fill="black" stroke="black" points="2612.29,-124.3 2622.29,-120.8 2612.29,-117.3 2612.29,-124.3"/>
</g>
<!-- ProductDetailsComponent -->
<g id="node22" class="node">
<title>ProductDetailsComponent</title>
<polygon fill="#ffffb3" stroke="black" points="2057.04,-84.8 1892.96,-84.8 1892.96,-48.8 2057.04,-48.8 2057.04,-84.8"/>
<text text-anchor="middle" x="1975" y="-62.6" font-family="Times,serif" font-size="14.00">ProductDetailsComponent</text>
</g>
<!-- ProductDetailsComponent&#45;&gt;AppModule -->
<g id="edge22" class="edge">
<title>ProductDetailsComponent&#45;&gt;AppModule</title>
<path fill="none" stroke="black" d="M1975,-84.83C1975,-101.2 1975,-122.8 1975,-122.8 1975,-122.8 2612.19,-122.8 2612.19,-122.8"/>
<polygon fill="black" stroke="black" points="2612.19,-126.3 2622.19,-122.8 2612.19,-119.3 2612.19,-126.3"/>
</g>
<!-- ShopComponent -->
<g id="node23" class="node">
<title>ShopComponent</title>
<polygon fill="#ffffb3" stroke="black" points="1875.12,-84.8 1764.88,-84.8 1764.88,-48.8 1875.12,-48.8 1875.12,-84.8"/>
<text text-anchor="middle" x="1820" y="-62.6" font-family="Times,serif" font-size="14.00">ShopComponent</text>
</g>
<!-- ShopComponent&#45;&gt;AppModule -->
<g id="edge23" class="edge">
<title>ShopComponent&#45;&gt;AppModule</title>
<path fill="none" stroke="black" d="M1820,-84.83C1820,-101.86 1820,-124.8 1820,-124.8 1820,-124.8 2612.15,-124.8 2612.15,-124.8"/>
<polygon fill="black" stroke="black" points="2612.15,-128.3 2622.15,-124.8 2612.15,-121.3 2612.15,-128.3"/>
</g>
<!-- UIComponent -->
<g id="node24" class="node">
<title>UIComponent</title>
<polygon fill="#ffffb3" stroke="black" points="1747.1,-84.8 1650.9,-84.8 1650.9,-48.8 1747.1,-48.8 1747.1,-84.8"/>
<text text-anchor="middle" x="1699" y="-62.6" font-family="Times,serif" font-size="14.00">UIComponent</text>
</g>
<!-- UIComponent&#45;&gt;AppModule -->
<g id="edge24" class="edge">
<title>UIComponent&#45;&gt;AppModule</title>
<path fill="none" stroke="black" d="M1699,-84.8C1699,-102.48 1699,-126.8 1699,-126.8 1699,-126.8 2612.23,-126.8 2612.23,-126.8"/>
<polygon fill="black" stroke="black" points="2612.23,-130.3 2622.23,-126.8 2612.23,-123.3 2612.23,-130.3"/>
</g>
<!-- UserAccountComponent -->
<g id="node25" class="node">
<title>UserAccountComponent</title>
<polygon fill="#ffffb3" stroke="black" points="1632.69,-84.8 1477.31,-84.8 1477.31,-48.8 1632.69,-48.8 1632.69,-84.8"/>
<text text-anchor="middle" x="1555" y="-62.6" font-family="Times,serif" font-size="14.00">UserAccountComponent</text>
</g>
<!-- UserAccountComponent&#45;&gt;AppModule -->
<g id="edge25" class="edge">
<title>UserAccountComponent&#45;&gt;AppModule</title>
<path fill="none" stroke="black" d="M1555,-85.07C1555,-103.36 1555,-128.8 1555,-128.8 1555,-128.8 2612.22,-128.8 2612.22,-128.8"/>
<polygon fill="black" stroke="black" points="2612.22,-132.3 2622.22,-128.8 2612.22,-125.3 2612.22,-132.3"/>
</g>
<!-- UserLoginComponent -->
<g id="node26" class="node">
<title>UserLoginComponent</title>
<polygon fill="#ffffb3" stroke="black" points="1459.71,-84.8 1318.29,-84.8 1318.29,-48.8 1459.71,-48.8 1459.71,-84.8"/>
<text text-anchor="middle" x="1389" y="-62.6" font-family="Times,serif" font-size="14.00">UserLoginComponent</text>
</g>
<!-- UserLoginComponent&#45;&gt;AppModule -->
<g id="edge26" class="edge">
<title>UserLoginComponent&#45;&gt;AppModule</title>
<path fill="none" stroke="black" d="M1389,-84.97C1389,-103.89 1389,-130.8 1389,-130.8 1389,-130.8 2612.3,-130.8 2612.3,-130.8"/>
<polygon fill="black" stroke="black" points="2612.3,-134.3 2622.3,-130.8 2612.3,-127.3 2612.3,-134.3"/>
</g>
<!-- UserRegisterComponent -->
<g id="node27" class="node">
<title>UserRegisterComponent</title>
<polygon fill="#ffffb3" stroke="black" points="1300.42,-84.8 1145.58,-84.8 1145.58,-48.8 1300.42,-48.8 1300.42,-84.8"/>
<text text-anchor="middle" x="1223" y="-62.6" font-family="Times,serif" font-size="14.00">UserRegisterComponent</text>
</g>
<!-- UserRegisterComponent&#45;&gt;AppModule -->
<g id="edge27" class="edge">
<title>UserRegisterComponent&#45;&gt;AppModule</title>
<path fill="none" stroke="black" d="M1223,-85.11C1223,-104.95 1223,-133.8 1223,-133.8 1223,-133.8 2612.04,-133.8 2612.04,-133.8"/>
<polygon fill="black" stroke="black" points="2612.04,-137.3 2622.04,-133.8 2612.04,-130.3 2612.04,-137.3"/>
</g>
<!-- UsersComponent -->
<g id="node28" class="node">
<title>UsersComponent</title>
<polygon fill="#ffffb3" stroke="black" points="1127.71,-84.8 1014.29,-84.8 1014.29,-48.8 1127.71,-48.8 1127.71,-84.8"/>
<text text-anchor="middle" x="1071" y="-62.6" font-family="Times,serif" font-size="14.00">UsersComponent</text>
</g>
<!-- UsersComponent&#45;&gt;AppModule -->
<g id="edge28" class="edge">
<title>UsersComponent&#45;&gt;AppModule</title>
<path fill="none" stroke="black" d="M1071,-84.93C1071,-105.37 1071,-135.8 1071,-135.8 1071,-135.8 2612.21,-135.8 2612.21,-135.8"/>
<polygon fill="black" stroke="black" points="2612.21,-139.3 2622.21,-135.8 2612.21,-132.3 2612.21,-139.3"/>
</g>
<!-- ViewCategoryComponent -->
<g id="node29" class="node">
<title>ViewCategoryComponent</title>
<polygon fill="#ffffb3" stroke="black" points="996.47,-84.8 833.53,-84.8 833.53,-48.8 996.47,-48.8 996.47,-84.8"/>
<text text-anchor="middle" x="915" y="-62.6" font-family="Times,serif" font-size="14.00">ViewCategoryComponent</text>
</g>
<!-- ViewCategoryComponent&#45;&gt;AppModule -->
<g id="edge29" class="edge">
<title>ViewCategoryComponent&#45;&gt;AppModule</title>
<path fill="none" stroke="black" d="M915,-85.08C915,-106.12 915,-137.8 915,-137.8 915,-137.8 2612.06,-137.8 2612.06,-137.8"/>
<polygon fill="black" stroke="black" points="2612.06,-141.3 2622.06,-137.8 2612.06,-134.3 2612.06,-141.3"/>
</g>
<!-- ViewOrderComponent -->
<g id="node30" class="node">
<title>ViewOrderComponent</title>
<polygon fill="#ffffb3" stroke="black" points="815.3,-84.8 670.7,-84.8 670.7,-48.8 815.3,-48.8 815.3,-84.8"/>
<text text-anchor="middle" x="743" y="-62.6" font-family="Times,serif" font-size="14.00">ViewOrderComponent</text>
</g>
<!-- ViewOrderComponent&#45;&gt;AppModule -->
<g id="edge30" class="edge">
<title>ViewOrderComponent&#45;&gt;AppModule</title>
<path fill="none" stroke="black" d="M743,-84.84C743,-106.46 743,-139.8 743,-139.8 743,-139.8 2612.09,-139.8 2612.09,-139.8"/>
<polygon fill="black" stroke="black" points="2612.09,-143.3 2622.09,-139.8 2612.09,-136.3 2612.09,-143.3"/>
</g>
<!-- ViewOrderDetailComponent -->
<g id="node31" class="node">
<title>ViewOrderDetailComponent</title>
<polygon fill="#ffffb3" stroke="black" points="653.01,-84.8 474.99,-84.8 474.99,-48.8 653.01,-48.8 653.01,-84.8"/>
<text text-anchor="middle" x="564" y="-62.6" font-family="Times,serif" font-size="14.00">ViewOrderDetailComponent</text>
</g>
<!-- ViewOrderDetailComponent&#45;&gt;AppModule -->
<g id="edge31" class="edge">
<title>ViewOrderDetailComponent&#45;&gt;AppModule</title>
<path fill="none" stroke="black" d="M564,-84.96C564,-107.15 564,-141.8 564,-141.8 564,-141.8 2612.05,-141.8 2612.05,-141.8"/>
<polygon fill="black" stroke="black" points="2612.05,-145.3 2622.05,-141.8 2612.05,-138.3 2612.05,-145.3"/>
</g>
<!-- ViewProductComponent -->
<g id="node32" class="node">
<title>ViewProductComponent</title>
<polygon fill="#ffffb3" stroke="black" points="456.71,-84.8 301.29,-84.8 301.29,-48.8 456.71,-48.8 456.71,-84.8"/>
<text text-anchor="middle" x="379" y="-62.6" font-family="Times,serif" font-size="14.00">ViewProductComponent</text>
</g>
<!-- ViewProductComponent&#45;&gt;AppModule -->
<g id="edge32" class="edge">
<title>ViewProductComponent&#45;&gt;AppModule</title>
<path fill="none" stroke="black" d="M379,-85.05C379,-107.82 379,-143.8 379,-143.8 379,-143.8 2611.89,-143.8 2611.89,-143.8"/>
<polygon fill="black" stroke="black" points="2611.89,-147.3 2621.89,-143.8 2611.89,-140.3 2611.89,-147.3"/>
</g>
<!-- AppComponent  -->
<g id="node36" class="node">
<title>AppComponent </title>
<polygon fill="#80b1d3" stroke="black" points="2718.44,-214.8 2609.56,-214.8 2609.56,-178.8 2718.44,-178.8 2718.44,-214.8"/>
<text text-anchor="middle" x="2664" y="-192.6" font-family="Times,serif" font-size="14.00">AppComponent </text>
</g>
<!-- AppModule&#45;&gt;AppComponent  -->
<g id="edge35" class="edge">
<title>AppModule&#45;&gt;AppComponent </title>
<path fill="none" stroke="black" stroke-dasharray="1,5" d="M2664,-149.91C2664,-149.91 2664,-168.79 2664,-168.79"/>
<polygon fill="black" stroke="black" points="2660.5,-168.79 2664,-178.79 2667.5,-168.79 2660.5,-168.79"/>
</g>
<!-- AppRoutingModule -->
<g id="node34" class="node">
<title>AppRoutingModule</title>
<polygon fill="#8dd3c7" stroke="black" points="277.28,-84.8 274.28,-88.8 253.28,-88.8 250.28,-84.8 148.72,-84.8 148.72,-48.8 277.28,-48.8 277.28,-84.8"/>
<text text-anchor="middle" x="213" y="-62.6" font-family="Times,serif" font-size="14.00">AppRoutingModule</text>
</g>
<!-- AppRoutingModule&#45;&gt;AppModule -->
<g id="edge33" class="edge">
<title>AppRoutingModule&#45;&gt;AppModule</title>
<path fill="none" stroke="black" d="M213,-85.12C213,-108.46 213,-145.8 213,-145.8 213,-145.8 2612.23,-145.8 2612.23,-145.8"/>
<polygon fill="black" stroke="black" points="2612.23,-149.3 2622.23,-145.8 2612.23,-142.3 2612.23,-149.3"/>
</g>
<!-- MaterialModule -->
<g id="node35" class="node">
<title>MaterialModule</title>
<polygon fill="#8dd3c7" stroke="black" points="130.47,-84.8 127.47,-88.8 106.47,-88.8 103.47,-84.8 23.53,-84.8 23.53,-48.8 130.47,-48.8 130.47,-84.8"/>
<text text-anchor="middle" x="77" y="-62.6" font-family="Times,serif" font-size="14.00">MaterialModule</text>
</g>
<!-- MaterialModule&#45;&gt;AppModule -->
<g id="edge34" class="edge">
<title>MaterialModule&#45;&gt;AppModule</title>
<path fill="none" stroke="black" d="M77,-85.18C77,-109.08 77,-147.8 77,-147.8 77,-147.8 2612.32,-147.8 2612.32,-147.8"/>
<polygon fill="black" stroke="black" points="2612.32,-151.3 2622.32,-147.8 2612.32,-144.3 2612.32,-151.3"/>
</g>
</g>
</svg>
